<svg width="20" height="21" viewBox="0 0 20 21" fill="none" xmlns="http://www.w3.org/2000/svg">
<path d="M9 9.35644V5.19802H11V9.35644H15V11.4356H11V15.5941H9V11.4356H5V9.35644H9ZM10 20.7921C4.477 20.7921 0 16.1378 0 10.396C0 4.65431 4.477 0 10 0C15.523 0 20 4.65431 20 10.396C20 16.1378 15.523 20.7921 10 20.7921ZM10 18.7129C12.1217 18.7129 14.1566 17.8366 15.6569 16.2769C17.1571 14.7172 18 12.6018 18 10.396C18 8.19028 17.1571 6.07486 15.6569 4.51515C14.1566 2.95544 12.1217 2.07921 10 2.07921C7.87827 2.07921 5.84344 2.95544 4.34315 4.51515C2.84285 6.07486 2 8.19028 2 10.396C2 12.6018 2.84285 14.7172 4.34315 16.2769C5.84344 17.8366 7.87827 18.7129 10 18.7129Z" fill="#27A6A4"/>
</svg>
