<svg width="14" height="14" viewBox="0 0 14 14" fill="none" xmlns="http://www.w3.org/2000/svg">
<path d="M6.99992 13.6663C3.31792 13.6663 0.333252 10.6817 0.333252 6.99967C0.333252 3.31767 3.31792 0.333008 6.99992 0.333008C10.6819 0.333008 13.6666 3.31767 13.6666 6.99967C13.6666 10.6817 10.6819 13.6663 6.99992 13.6663ZM6.99992 12.333C8.41441 12.333 9.77096 11.7711 10.7712 10.7709C11.7713 9.77072 12.3333 8.41416 12.3333 6.99967C12.3333 5.58519 11.7713 4.22863 10.7712 3.22844C9.77096 2.22824 8.41441 1.66634 6.99992 1.66634C5.58543 1.66634 4.22888 2.22824 3.22868 3.22844C2.22849 4.22863 1.66659 5.58519 1.66659 6.99967C1.66659 8.41416 2.22849 9.77072 3.22868 10.7709C4.22888 11.7711 5.58543 12.333 6.99992 12.333ZM6.33325 3.66634H7.66659V4.99967H6.33325V3.66634ZM6.33325 6.33301H7.66659V10.333H6.33325V6.33301Z" fill="#716E79"/>
</svg>
